<svg xmlns="http://www.w3.org/2000/svg" viewBox="0 0 120.97 11.33" width="350px"><defs><style>.cls-1{fill:#fff;}</style></defs><g id="Layer_2" data-name="Layer 2"><g id="Layer_1-2" data-name="Layer 1"><path class="cls-1" d="M0,1.06V.22H4.72v.84H2.8V8.84H1.92V1.06Z"/><path class="cls-1" d="M5.83,0h.82V3.6a3.59,3.59,0,0,1,1.1-1A2.71,2.71,0,0,1,9,2.3a2.27,2.27,0,0,1,1.27.36,2.18,2.18,0,0,1,.82,1,5.23,5.23,0,0,1,.26,1.91V8.84h-.82v-3a7.65,7.65,0,0,0-.09-1.47,1.63,1.63,0,0,0-.55-1,1.66,1.66,0,0,0-1-.32,2.09,2.09,0,0,0-1.34.49,2.31,2.31,0,0,0-.77,1.22A8.3,8.3,0,0,0,6.65,6.5V8.84H5.83Z"/><path class="cls-1" d="M18.52,6.72l.69.36a3.69,3.69,0,0,1-.79,1.08,3.19,3.19,0,0,1-1,.63A3.54,3.54,0,0,1,16.16,9a3,3,0,0,1-2.44-1,3.42,3.42,0,0,1-.88-2.31,3.48,3.48,0,0,1,.74-2.17,3.05,3.05,0,0,1,2.53-1.2,3.13,3.13,0,0,1,2.6,1.23,3.44,3.44,0,0,1,.71,2.18H13.68a2.6,2.6,0,0,0,.71,1.82,2.24,2.24,0,0,0,1.7.71A2.52,2.52,0,0,0,17,8.07a2.61,2.61,0,0,0,.79-.44A4,4,0,0,0,18.52,6.72Zm0-1.72A2.72,2.72,0,0,0,18,4a2.23,2.23,0,0,0-.83-.64,2.58,2.58,0,0,0-1.09-.24,2.31,2.31,0,0,0-1.61.61A2.72,2.72,0,0,0,13.76,5Z"/><path class="cls-1" d="M32.43,1.82l-.68.52A3.6,3.6,0,0,0,30.4,1.23,4,4,0,0,0,28.67.85a3.83,3.83,0,0,0-1.91.49A3.55,3.55,0,0,0,25.4,2.67a3.74,3.74,0,0,0-.49,1.88A3.49,3.49,0,0,0,26,7.18a3.72,3.72,0,0,0,2.72,1.06,3.82,3.82,0,0,0,3-1.42l.68.52A4.25,4.25,0,0,1,30.82,8.6a5,5,0,0,1-2.15.45,4.49,4.49,0,0,1-3.57-1.5A4.54,4.54,0,0,1,24,4.48a4.28,4.28,0,0,1,1.32-3.19A4.6,4.6,0,0,1,28.66,0a4.88,4.88,0,0,1,2.18.48A4.14,4.14,0,0,1,32.43,1.82Z"/><path class="cls-1" d="M34,0h.82V3.6a3.56,3.56,0,0,1,1.09-1,2.75,2.75,0,0,1,1.3-.32,2.24,2.24,0,0,1,1.26.36,2.12,2.12,0,0,1,.82,1,5,5,0,0,1,.27,1.91V8.84h-.82v-3a7.65,7.65,0,0,0-.09-1.47,1.64,1.64,0,0,0-.56-1,1.62,1.62,0,0,0-1-.32,2.06,2.06,0,0,0-1.33.49A2.39,2.39,0,0,0,35,4.76a8.51,8.51,0,0,0-.11,1.74V8.84H34Z"/><path class="cls-1" d="M44.36,2.3A3.15,3.15,0,0,1,46.8,3.36a3.32,3.32,0,0,1,.88,2.31A3.31,3.31,0,0,1,46.75,8,3.37,3.37,0,0,1,42,8,3.31,3.31,0,0,1,41,5.67a3.34,3.34,0,0,1,.88-2.3A3.16,3.16,0,0,1,44.36,2.3Zm0,.8a2.36,2.36,0,0,0-1.76.76,2.5,2.5,0,0,0-.73,1.82A2.63,2.63,0,0,0,42.2,7a2.39,2.39,0,0,0,.91.93,2.53,2.53,0,0,0,1.25.32,2.55,2.55,0,0,0,1.25-.32A2.46,2.46,0,0,0,46.52,7a2.63,2.63,0,0,0,.33-1.29,2.47,2.47,0,0,0-.74-1.82A2.33,2.33,0,0,0,44.36,3.1Z"/><path class="cls-1" d="M52.41,3.16l-.53.54a1.93,1.93,0,0,0-1.29-.64,1,1,0,0,0-.68.27.81.81,0,0,0-.29.61.92.92,0,0,0,.24.6,3.25,3.25,0,0,0,1,.67,3.71,3.71,0,0,1,1.25.91,1.71,1.71,0,0,1,.32,1,1.8,1.8,0,0,1-.55,1.33A1.9,1.9,0,0,1,50.48,9a2.38,2.38,0,0,1-1-.24,2.25,2.25,0,0,1-.83-.66l.51-.59a1.82,1.82,0,0,0,1.34.71,1.16,1.16,0,0,0,.84-.32,1,1,0,0,0,.34-.74.94.94,0,0,0-.23-.63,3.68,3.68,0,0,0-1-.68A3.1,3.1,0,0,1,49.2,5a1.61,1.61,0,0,1-.32-1,1.61,1.61,0,0,1,.5-1.2,1.73,1.73,0,0,1,1.25-.48A2.59,2.59,0,0,1,52.41,3.16Z"/><path class="cls-1" d="M59.23,6.72l.69.36a3.69,3.69,0,0,1-.79,1.08,3.19,3.19,0,0,1-1,.63A3.54,3.54,0,0,1,56.87,9a3.06,3.06,0,0,1-2.44-1,3.42,3.42,0,0,1-.88-2.31,3.48,3.48,0,0,1,.74-2.17,3.06,3.06,0,0,1,2.53-1.2,3.16,3.16,0,0,1,2.61,1.23,3.49,3.49,0,0,1,.7,2.18H54.39a2.64,2.64,0,0,0,.71,1.82,2.26,2.26,0,0,0,1.7.71,2.61,2.61,0,0,0,1-.17,2.68,2.68,0,0,0,.78-.44A4,4,0,0,0,59.23,6.72Zm0-1.72a2.72,2.72,0,0,0-.48-1,2.23,2.23,0,0,0-.83-.64,2.58,2.58,0,0,0-1.09-.24,2.31,2.31,0,0,0-1.61.61A2.72,2.72,0,0,0,54.47,5Z"/><path class="cls-1" d="M61.66,2.46h.82V3.6a3.56,3.56,0,0,1,1.09-1,2.75,2.75,0,0,1,1.3-.32,2.27,2.27,0,0,1,1.27.36,2.18,2.18,0,0,1,.82,1,5.3,5.3,0,0,1,.26,1.91V8.84H66.4v-3a7.65,7.65,0,0,0-.09-1.47,1.63,1.63,0,0,0-.55-1,1.66,1.66,0,0,0-1.05-.32,2.07,2.07,0,0,0-1.34.49,2.31,2.31,0,0,0-.77,1.22,8.37,8.37,0,0,0-.12,1.74V8.84h-.82Z"/><path class="cls-1" d="M71.54,7.23l.74-.44c.51,1,1.11,1.42,1.78,1.42a1.69,1.69,0,0,0,.82-.2,1.39,1.39,0,0,0,.48-2.11,7.19,7.19,0,0,0-1.47-1.38,8.24,8.24,0,0,1-1.35-1.18A2.19,2.19,0,0,1,72.09,2a2,2,0,0,1,.27-1,1.85,1.85,0,0,1,.76-.73A2.14,2.14,0,0,1,74.18,0a2.26,2.26,0,0,1,1.14.3,3.86,3.86,0,0,1,1.12,1.11l-.7.54a3.33,3.33,0,0,0-.83-.85,1.42,1.42,0,0,0-.75-.21,1.18,1.18,0,0,0-.85.32A1,1,0,0,0,73,2a1.29,1.29,0,0,0,.12.54,1.94,1.94,0,0,0,.42.58c.12.1.49.39,1.12.86a6.37,6.37,0,0,1,1.53,1.47,2.35,2.35,0,0,1,.42,1.29,2.21,2.21,0,0,1-.71,1.63,2.42,2.42,0,0,1-1.74.69,2.54,2.54,0,0,1-1.42-.42A3.76,3.76,0,0,1,71.54,7.23Z"/><path class="cls-1" d="M84.63,2.46V8.84h-.81V7.74a3.52,3.52,0,0,1-1.16.94A3.22,3.22,0,0,1,79,8a3.3,3.3,0,0,1-1-2.39,3.19,3.19,0,0,1,1-2.35,3.11,3.11,0,0,1,2.32-1,3,3,0,0,1,1.42.33,3.21,3.21,0,0,1,1.12,1V2.46Zm-3.28.63a2.44,2.44,0,0,0-2.19,1.28,2.57,2.57,0,0,0-.34,1.29,2.54,2.54,0,0,0,.35,1.28,2.57,2.57,0,0,0,.92,1,2.42,2.42,0,0,0,1.25.34,2.53,2.53,0,0,0,1.28-.34A2.39,2.39,0,0,0,83.55,7a2.73,2.73,0,0,0,.32-1.31,2.53,2.53,0,0,0-.73-1.85A2.41,2.41,0,0,0,81.35,3.09Z"/><path class="cls-1" d="M86.37,2.46h.82v3a7.07,7.07,0,0,0,.11,1.5,1.67,1.67,0,0,0,.68.92,2.21,2.21,0,0,0,2.34,0A1.68,1.68,0,0,0,91,7a5.66,5.66,0,0,0,.13-1.56v-3H92V5.59a5.07,5.07,0,0,1-.31,2,2.4,2.4,0,0,1-.93,1,3.35,3.35,0,0,1-3.1,0,2.34,2.34,0,0,1-.94-1,5.28,5.28,0,0,1-.3-2Z"/><path class="cls-1" d="M97,3.16l-.52.54a1.93,1.93,0,0,0-1.29-.64,1,1,0,0,0-.69.27.8.8,0,0,0-.28.61,1,1,0,0,0,.23.6,3.47,3.47,0,0,0,1,.67,3.82,3.82,0,0,1,1.25.91,1.71,1.71,0,0,1,.32,1,1.84,1.84,0,0,1-.55,1.33A1.9,1.9,0,0,1,95.05,9,2.45,2.45,0,0,1,94,8.76a2.34,2.34,0,0,1-.83-.66l.52-.59A1.8,1.8,0,0,0,95,8.22a1.16,1.16,0,0,0,.84-.32,1,1,0,0,0,.35-.74A1,1,0,0,0,96,6.53a3.85,3.85,0,0,0-1-.68A3.23,3.23,0,0,1,93.76,5a1.6,1.6,0,0,1-.31-1,1.61,1.61,0,0,1,.5-1.2A1.73,1.73,0,0,1,95.2,2.3,2.55,2.55,0,0,1,97,3.16Z"/><path class="cls-1" d="M104.78,2.46V8.84H104V7.74a3.42,3.42,0,0,1-1.16.94A3.22,3.22,0,0,1,99.1,8a3.3,3.3,0,0,1-1-2.39,3.19,3.19,0,0,1,1-2.35,3.11,3.11,0,0,1,2.32-1,3,3,0,0,1,1.42.33,3.21,3.21,0,0,1,1.12,1V2.46Zm-3.28.63a2.44,2.44,0,0,0-2.19,1.28A2.57,2.57,0,0,0,99,5.66a2.54,2.54,0,0,0,.35,1.28,2.57,2.57,0,0,0,.92,1,2.42,2.42,0,0,0,1.25.34,2.53,2.53,0,0,0,1.28-.34A2.39,2.39,0,0,0,103.7,7,2.73,2.73,0,0,0,104,5.68a2.53,2.53,0,0,0-.73-1.85A2.41,2.41,0,0,0,101.5,3.09Z"/><path class="cls-1" d="M112.12,2.46h.82V7.54a6.14,6.14,0,0,1-.23,2,2.59,2.59,0,0,1-1.12,1.36,3.77,3.77,0,0,1-1.92.47,4.45,4.45,0,0,1-1.47-.23,2.93,2.93,0,0,1-1.07-.62,3.69,3.69,0,0,1-.75-1.15h.89a2.24,2.24,0,0,0,.94.94,3,3,0,0,0,1.42.31,3,3,0,0,0,1.42-.32,1.88,1.88,0,0,0,.82-.78A3.44,3.44,0,0,0,112.12,8V7.62a3.18,3.18,0,0,1-1.13.9,3.31,3.31,0,0,1-1.42.32,3.35,3.35,0,0,1-1.66-.44,3.07,3.07,0,0,1-1.19-1.18,3.22,3.22,0,0,1-.43-1.62A3.28,3.28,0,0,1,108,2.74a3.33,3.33,0,0,1,1.64-.44,3.2,3.2,0,0,1,1.34.29,3.76,3.76,0,0,1,1.19,1Zm-2.42.63a2.64,2.64,0,0,0-1.3.33,2.57,2.57,0,0,0-1.27,2.22,2.33,2.33,0,0,0,.7,1.74,2.53,2.53,0,0,0,1.82.68,2.44,2.44,0,0,0,1.82-.68,2.39,2.39,0,0,0,.69-1.78,2.62,2.62,0,0,0-.32-1.29,2.24,2.24,0,0,0-.89-.89A2.51,2.51,0,0,0,109.7,3.09Z"/><path class="cls-1" d="M120.06,6.72l.7.36A3.69,3.69,0,0,1,120,8.16a3.19,3.19,0,0,1-1,.63,3.54,3.54,0,0,1-1.26.21,3,3,0,0,1-2.44-1,3.42,3.42,0,0,1-.88-2.31,3.42,3.42,0,0,1,.74-2.17,3.05,3.05,0,0,1,2.53-1.2,3.14,3.14,0,0,1,2.6,1.23A3.5,3.5,0,0,1,121,5.71h-5.74a2.6,2.6,0,0,0,.71,1.82,2.24,2.24,0,0,0,1.7.71,2.52,2.52,0,0,0,.94-.17,2.61,2.61,0,0,0,.79-.44A4,4,0,0,0,120.06,6.72Zm0-1.72a2.57,2.57,0,0,0-.47-1,2.23,2.23,0,0,0-.83-.64,2.58,2.58,0,0,0-1.09-.24,2.29,2.29,0,0,0-1.61.61A2.72,2.72,0,0,0,115.31,5Z"/></g></g></svg>